<svg t="1630923795437" class="icon" viewBox="0 0 1820 1024" version="1.1" xmlns="http://www.w3.org/2000/svg" p-id="2159" width="200" height="200"><path d="M1053.582222 368.64H664.462222c-7.585185 0-13.653333 6.068148-13.653333 13.653333s6.162963 13.653333 13.653333 13.653334h389.12c7.585185 0 13.653333-6.162963 13.653334-13.653334 0-7.585185-6.068148-13.653333-13.653334-13.653333zM1053.582222 218.453333H664.462222c-7.585185 0-13.653333 6.068148-13.653333 13.653334s6.162963 13.653333 13.653333 13.653333h389.12c7.585185 0 13.653333-6.068148 13.653334-13.653333s-6.068148-13.653333-13.653334-13.653334zM1053.582222 518.826667H664.462222c-7.585185 0-13.653333 6.068148-13.653333 13.653333s6.162963 13.653333 13.653333 13.653333h389.12c7.585185 0 13.653333-6.068148 13.653334-13.653333s-6.068148-13.653333-13.653334-13.653333z" p-id="2160"></path><path d="M1237.902222 170.666667H1183.288889v-40.96c0-30.151111-24.462222-54.613333-54.613333-54.613334h-546.133334c-30.151111 0-54.613333 24.462222-54.613333 54.613334v669.013333c0 30.151111 24.462222 54.613333 54.613333 54.613333h40.96v40.96c0 30.151111 24.462222 54.613333 54.613334 54.613334h559.786666c30.151111 0 54.613333-24.462222 54.613334-54.613334V225.28c0-30.151111-24.462222-54.613333-54.613334-54.613333z m-682.666666 628.053333V129.706667c0-15.075556 12.231111-27.306667 27.306666-27.306667h546.133334c15.075556 0 27.306667 12.231111 27.306666 27.306667v669.013333c0 15.075556-12.231111 27.306667-27.306666 27.306667h-546.133334c-15.075556 0-27.306667-12.231111-27.306666-27.306667z m709.973333 95.573333c0 15.075556-12.231111 27.306667-27.306667 27.306667H678.115556c-15.075556 0-27.306667-12.231111-27.306667-27.306667V853.333333h477.866667c30.151111 0 54.613333-24.462222 54.613333-54.613333V197.973333h54.613333c15.075556 0 27.306667 12.231111 27.306667 27.306667v669.013333z" p-id="2161"></path></svg>