<svg t="1630977822070" class="icon" viewBox="0 0 1024 1024" version="1.1" xmlns="http://www.w3.org/2000/svg" p-id="1323" width="200" height="200"><path d="M861.568 91.776h-116.48c0-34.944-23.296-58.24-58.24-58.24H337.28c-34.944 0-58.24 23.296-58.24 58.24h-116.48c-46.592 0-87.424 40.832-87.424 87.424v733.952c0 46.592 40.832 87.424 87.424 87.424h699.008c46.592 0 87.424-40.832 87.424-87.424V179.2c-0.128-46.592-40.832-87.424-87.424-87.424zM337.28 120.96V91.776h349.568v58.368H337.28V120.96z m553.344 792.192c0 17.536-11.648 29.184-29.184 29.184H162.432c-17.536 0-29.184-11.648-29.184-29.184V179.2c0-17.536 11.648-29.184 29.184-29.184h116.48c0 34.944 23.296 58.24 58.24 58.24h349.568c34.944 0 58.24-23.296 58.24-58.24h116.48c17.536 0 29.184 11.648 29.184 29.184v733.952z" p-id="1324"></path><path d="M724.48 341.504H299.52c-17.024 0-30.72 13.696-30.72 30.72s13.696 30.72 30.72 30.72h424.96c17.024 0 30.72-13.696 30.72-30.72 0-16.896-13.696-30.72-30.72-30.72zM724.48 520.32H299.52c-17.024 0-30.72 13.696-30.72 30.72s13.696 30.72 30.72 30.72h424.96c17.024 0 30.72-13.696 30.72-30.72s-13.696-30.72-30.72-30.72zM724.48 699.136H299.52c-17.024 0-30.72 13.696-30.72 30.72s13.696 30.72 30.72 30.72h424.96c17.024 0 30.72-13.696 30.72-30.72s-13.696-30.72-30.72-30.72z" p-id="1325"></path></svg>