<svg t="1630977893530" class="icon" viewBox="0 0 1024 1024" version="1.1" xmlns="http://www.w3.org/2000/svg" p-id="1945" width="200" height="200"><path d="M938.6496 981.3504a42.6496 42.6496 0 0 0-42.6496-42.6496h-341.2992A42.6496 42.6496 0 0 0 554.496 1024h341.8112a42.5984 42.5984 0 0 0 42.3424-42.6496zM426.7008 981.3504a42.6496 42.6496 0 0 0-42.6496-42.6496h-256A42.6496 42.6496 0 0 0 127.8464 1024h256.512a42.5984 42.5984 0 0 0 42.3424-42.6496zM896 42.7008h-768a128 128 0 0 0-127.9488 128v554.7008a128 128 0 0 0 128 128l767.9488-0.0512a128 128 0 0 0 128-128V170.7008a128 128 0 0 0-128-128z m42.6496 682.7008c0 23.552-19.0976 42.6496-42.6496 42.6496H358.8608l305.92-305.92 0.1024-0.1024a85.2992 85.2992 0 0 1 120.6272 0.1024l153.1392 152.7296v110.5408z m0.0512-230.912L846.1312 401.92a175.0016 175.0016 0 0 0-241.5104 0L238.5408 768H128a42.6496 42.6496 0 0 1-42.6496-42.6496V170.7008c0-23.552 19.0976-42.6496 42.6496-42.6496h768.0512c23.552 0 42.6496 19.0976 42.6496 42.6496v323.7888z" p-id="1946"></path><path d="M298.7008 213.3504a128 128 0 1 0 0 256 128 128 0 0 0 0-256zM298.6496 384a42.6496 42.6496 0 1 1 0-85.2992 42.6496 42.6496 0 0 1 0 85.2992z" p-id="1947"></path></svg>