<svg t="1630924130926" class="icon" viewBox="0 0 1024 1024" version="1.1" xmlns="http://www.w3.org/2000/svg" p-id="3629" width="200" height="200"><path d="M768 213.333333a42.666667 42.666667 0 0 1 42.666667 42.666667v362.666667a42.666667 42.666667 0 0 1-42.666667 42.666666H256a42.666667 42.666667 0 0 1-42.666667-42.666666V256a42.666667 42.666667 0 0 1 42.666667-42.666667h512z m0 42.666667H256v362.666667h512V256z" fill="#333333" p-id="3630"></path><path d="M507.904 492.970667l191.402667-158.506667 101.973333 92.373333-28.672 31.573334-74.581333-67.541334-181.930667 150.741334-199.765333-74.922667L226.133333 534.357333 213.333333 500.053333l96.085334-81.493333z" fill="#333333" p-id="3631"></path><path d="M412.458667 312.874667a49.792 49.792 0 1 1 0 99.584 49.792 49.792 0 0 1 0-99.584z" fill="#333333" p-id="3632"></path><path d="M768 213.333333a42.666667 42.666667 0 0 1 42.666667 42.666667v362.666667a42.666667 42.666667 0 0 1-42.666667 42.666666H256a42.666667 42.666667 0 0 1-42.666667-42.666666V256a42.666667 42.666667 0 0 1 42.666667-42.666667h512z m0 42.666667H256v362.666667h512V256zM362.666667 757.333333a21.333333 21.333333 0 0 1 3.84 42.325334l-3.84 0.341333H213.333333a21.333333 21.333333 0 0 1-3.84-42.325333L213.333333 757.333333h149.333334zM586.666667 757.333333a21.333333 21.333333 0 0 1 3.84 42.325334l-3.84 0.341333h-149.333334a21.333333 21.333333 0 0 1-3.84-42.325333l3.84-0.341334h149.333334zM810.666667 757.333333a21.333333 21.333333 0 0 1 3.84 42.325334l-3.84 0.341333h-149.333334a21.333333 21.333333 0 0 1-3.84-42.325333l3.84-0.341334H810.666667z" fill="#333333" p-id="3633"></path></svg>