<svg t="1630924036893" class="icon" viewBox="0 0 1024 1024" version="1.1" xmlns="http://www.w3.org/2000/svg" p-id="3008" width="200" height="200"><path d="M829.55438 250.431511 193.843621 250.431511c-17.457966 0-31.905938 14.447972-31.905938 31.905938 0 17.457966 14.447972 31.905938 31.905938 31.905938l635.710758 0c17.457966 0 31.905938-14.447972 31.905938-31.905938C861.460317 264.277484 847.614345 250.431511 829.55438 250.431511z" p-id="3009"></path><path d="M214.311581 441.265138c-14.447972 0-27.089947 6.019988-36.721928 15.049971l0 0c-9.631981 9.631981-15.049971 22.273956-15.049971 36.721928l0 213.107584c0 14.447972 6.019988 27.691946 15.651969 37.323927 9.631981 9.631981 22.875955 15.651969 37.323927 15.651969L427.419165 759.120517c14.447972 0 27.691946-6.019988 37.323927-15.651969 9.631981-9.631981 15.651969-22.875955 15.651969-37.323927L480.395062 493.639036c0-14.447972-6.019988-27.691946-15.651969-37.323927-9.631981-9.631981-22.875955-15.651969-37.323927-15.651969L214.311581 440.663139zM416.583186 695.308642 225.749559 695.308642 225.749559 504.475015l190.833627 0L416.583186 695.308642z" p-id="3010"></path><path d="M829.55438 439.459142l-190.833627 0c-17.457966 0-31.905938 14.447972-31.905938 31.905938 0 17.457966 14.447972 31.905938 31.905938 31.905938l190.833627 0c17.457966 0 31.905938-14.447972 31.905938-31.905938C861.460317 453.907113 847.614345 439.459142 829.55438 439.459142z" p-id="3011"></path><path d="M829.55438 630.894768l-190.833627 0c-17.457966 0-31.905938 14.447972-31.905938 31.905938 0 17.457966 14.447972 31.905938 31.905938 31.905938l190.833627 0c17.457966 0 31.905938-14.447972 31.905938-31.905938C861.460317 644.740741 847.614345 630.894768 829.55438 630.894768z" p-id="3012"></path><path d="M989.084068 162.539683c-17.457966 0-31.905938 14.447972-31.905938 31.905938l0 689.890653c0 18.661964-15.049971 33.711934-33.711934 33.711934L100.533804 918.048207c-18.661964 0-33.711934-15.049971-33.711934-33.711934L66.821869 139.663727c0-18.661964 15.049971-33.711934 33.711934-33.711934l773.568489 0c17.457966 0 31.905938-14.447972 31.905938-31.905938 0-17.457966-14.447972-31.905938-31.905938-31.905938L100.533804 42.139918c-53.577895 0-96.921811 43.343915-96.921811 96.921811l0 744.672546c0 53.577895 43.343915 96.921811 96.921811 96.921811l822.330394 0c53.577895 0 96.921811-43.343915 96.921811-96.921811L1019.786008 194.44562C1020.388007 176.987654 1006.542034 162.539683 989.084068 162.539683z" p-id="3013"></path></svg>